<?xml version="1.0" encoding="utf-8"?>
<!DOCTYPE svg PUBLIC "-//W3C//DTD SVG 1.1//EN" "http://www.w3.org/Graphics/SVG/1.1/DTD/svg11.dtd">
<svg version="1.1" xmlns="http://www.w3.org/2000/svg" xmlns:xlink="http://www.w3.org/1999/xlink" x="0px" y="0px" width="1024px" height="1024px" viewBox="0 0 1024 1024" enable-background="new 0 0 1024 1024" xml:space="preserve">
<metadata> Free Icon Download -- www.onlinewebfonts.com </metadata>

  <path d="M893.589552 897.136463C888.965717 897.136463 884.341883 895.373493 880.815944 891.837L663.875738 674.907351C656.823863 667.844919 656.823863 656.401452 663.875738 649.33902 670.938173 642.287145 682.381636 642.287145 689.444069 649.33902L906.373717 866.268669C913.43615 873.331101 913.43615 884.774567 906.373717 891.837 902.847782 895.373493 898.21339 897.136463 893.589552 897.136463" />
<path d="M1027.627988 817.338361 738.384934 528.095307C733.338832 523.049206 726.909802 519.607723 719.910707 518.203679L653.160687 504.86001 639.806461 438.099432C637.1884 425.030236 627.592356 414.452422 614.829305 410.588669 611.377265 409.543557 607.851325 409.036834 604.357059 409.036834 594.908812 409.036834 585.671697 412.742236 578.788727 419.625206L550.116727 448.297206 278.957306 177.127226 278.957306 155.950484C278.957306 146.364999 275.146337 137.170113 268.368935 130.382154L159.898832 21.922608C152.836399 14.860175 143.588728 11.334237 134.330502 11.334237 125.082832 11.334237 115.824605 14.860175 108.772728 21.922608L36.459326 94.225453C22.33446 108.350319 22.33446 131.247803 36.459326 145.362113L144.92943 253.832216C151.706832 260.609618 160.901718 264.420587 170.487203 264.420587L191.663945 264.420587 462.833923 535.58001 434.161923 564.25201C424.734792 573.679145 421.261636 587.529537 425.12539 600.292588 428.98914 613.055638 439.566954 622.651679 452.63615 625.269743L519.396727 638.623969 532.7404 705.37399C534.14444 712.373081 537.585923 718.802111 542.632028 723.848216L831.875079 1013.080709C838.652481 1019.868669 847.847369 1023.679638 857.432852 1023.679638 950.363491 1023.679638 1038.216356 935.826773 1038.216356 842.896135 1038.216356 833.310648 1034.40539 824.115763 1027.627988 817.338361L1027.627988 817.338361ZM62.027656 119.793783 134.330502 47.490938 157.703038 70.863474 85.400192 143.166319 62.027656 119.793783 62.027656 119.793783ZM206.643904 228.263886 170.487203 228.263886 110.957966 168.734649 183.271368 96.421247 242.800605 155.950484 242.800605 192.107185 524.558954 473.865537 488.402255 510.022236 206.643904 228.263886 206.643904 228.263886ZM857.432852 987.522939 568.200356 698.279885 550.116727 607.893412 459.730255 589.809783 604.346501 445.193537 622.430129 535.58001 712.816606 553.663638 1002.059657 842.896135C1002.059657 915.209537 929.746255 987.522939 857.432852 987.522939L857.432852 987.522939Z" />
<path d="M515.19516 622.493331 290.865265 846.823226C284.130089 853.568959 280.340234 862.71106 280.340234 872.254321 280.340234 901.063557 269.118461 928.141493 248.744027 948.526483 206.686131 990.584381 138.247038 990.584381 96.189141 948.526483 75.814708 928.141493 64.592935 901.053 64.592935 872.243763 64.592935 843.423969 75.814708 816.335473 96.189141 795.96104 116.563574 775.586608 143.652069 764.375392 172.461306 764.375392 182.004564 764.375392 191.146667 760.585537 197.892399 753.839804L455.644812 496.087392 442.142792 477.475929 429.326954 471.553618 172.461306 728.408709C135.650089 728.408709 98.84943 742.459679 70.758048 770.540503 42.677223 798.621331 28.636811 835.432547 28.636811 872.243763 28.636811 909.054979 42.677223 945.866196 70.758048 973.94702 126.930254 1030.119226 218.002914 1030.119226 274.164564 973.94702 302.255945 945.866196 316.296358 909.054979 316.296358 872.254321L316.296358 872.243763 544.490008 644.050111C544.490008 644.050111 523.239369 628.785125 515.19516 622.493331" />
<path d="M1016.237305 136.336133 891.61545 260.957989 783.747079 260.957989 783.747079 153.089618 908.368934 28.467762C881.290998 16.232546 851.341636 9.254566 819.703204 9.254566 700.549717 9.254566 603.955903 105.848381 603.955903 225.001866 603.955903 246.790896 607.249596 267.788175 613.256356 287.613659L486.206461 414.663557 489.816852 419.994689 514.582873 437.149331 628.014626 323.717577C648.579079 363.579679 681.135944 396.12599 720.987491 416.701L633.630792 504.057699 644.64143 517.506939 664.488028 524.041537 757.09141 431.448709C776.916893 437.455473 797.914173 440.749165 819.703204 440.749165 938.856687 440.749165 1035.450501 344.15535 1035.450501 225.001866 1035.450501 193.363432 1028.472521 163.414072 1016.237305 136.336133L1016.237305 136.336133ZM819.703204 404.79304C720.565224 404.79304 639.912028 324.139845 639.912028 225.001866 639.912028 125.863886 720.565224 45.221247 819.703204 45.221247 826.39615 45.221247 833.05743 45.590731 839.655369 46.3297L758.315988 127.658525C751.580812 134.404257 747.790954 143.556917 747.790954 153.089618L747.790954 260.957989C747.790954 280.8257 763.889923 296.92467 783.747079 296.92467L891.61545 296.92467C901.158707 296.92467 910.300812 293.134814 917.046542 286.389082L998.375369 205.0497C999.124893 211.647639 999.49438 218.308917 999.49438 225.001866 999.49438 324.139845 918.841184 404.79304 819.703204 404.79304L819.703204 404.79304Z" />
<path d="M262.362172 764.375392C262.362172 768.967557 264.114584 773.570277 267.629966 777.085658 274.650172 784.105865 286.030295 784.105865 293.050502 777.085658L467.573883 602.562277 456.383782 602.562277 432.261717 586.558321 404.085883 615.198648 267.629966 751.654567C264.114584 755.169949 262.362172 759.772669 262.362172 764.375392" />
<path d="M621.627822 443.905618 616.666173 453.459432C619.368687 450.756919 621.015532 447.399885 621.627822 443.905618" />
<path d="M172.461306 800.331517C132.810337 800.331517 100.549059 832.592794 100.549059 872.243763 100.549059 911.894733 132.810337 944.15601 172.461306 944.15601 212.122832 944.15601 244.38411 911.894733 244.38411 872.243763 244.38411 832.592794 212.122832 800.331517 172.461306 800.331517L172.461306 800.331517ZM172.461306 908.199885C152.604151 908.199885 136.505182 892.100919 136.505182 872.243763 136.505182 852.386608 152.604151 836.287638 172.461306 836.287638 192.318461 836.287638 208.41743 852.386608 208.41743 872.243763 208.41743 892.100919 192.318461 908.199885 172.461306 908.199885L172.461306 908.199885Z" />


</svg>