<svg xmlns="http://www.w3.org/2000/svg" width="356.438" height="352.018" viewBox="0 0 356.4375 352.01757"><title>Bluemix logo</title><path d="M303.219 176.009l50-86.603-50-86.602h-100l-50 86.602 50 86.603z" fill="#00b198"><title>Northeast engine</title></path><path d="M201.594 0L150 89.406l51.594 89.406h103.25l51.594-89.406L304.844 0h-103.25zm3.25 5.625h96.75L350 89.406l-48.406 83.813h-96.75l-48.407-83.813 48.407-83.781z" fill="#fff"><title>Crown for northeast engine</title></path><path d="M153.219 262.611l50 86.603h100l50-86.603-50-86.602h-100z" fill="#00aed1"><title>Southeast engine</title></path><path d="M201.594 173.205L150 262.611l51.594 89.407h103.25l51.594-89.407-51.594-89.406h-103.25zm3.25 5.625h96.75L350 262.611l-48.406 83.813h-96.75l-48.407-83.813 48.407-83.78z" fill="#fff"><title>Crown for southeast engine</title></path><path d="M153.219 89.406h-100l-50 86.603 50 86.602h100l50-86.602z" fill="#3b4b54"><title>West engine</title></path><path d="M51.594 86.59L0 175.998l51.594 89.406h103.25l51.594-89.406-51.594-89.406H51.594zm3.25 5.626h96.75L200 175.997l-48.406 83.813h-96.75L6.437 175.997l48.407-83.781z" fill="#fff"><title>Crown for west engine</title></path><path d="M151.594 86.59v178.813l154.844-89.406-154.844-89.406zm5.594 9.72l138.062 79.687-138.063 79.719V96.31z" fill="#fff"><title>Triangle</title></path><path d="M203.219 75.997c-55.229 0-100 44.772-100 100 0 55.229 44.771 100 100 100 55.228 0 100-44.771 100-100 0-55.228-44.772-100-100-100zm0 5.625c52.135 0 94.406 42.24 94.406 94.375s-42.271 94.406-94.406 94.406c-52.135 0-94.406-42.27-94.406-94.406 0-52.135 42.27-94.375 94.406-94.375z" fill="#fff"><title>Circle</title></path></svg>