<svg xmlns="http://www.w3.org/2000/svg" width="1024" height="1024" viewBox="0 0 1024 1024"><path d="M893.59 897.136a17.975 17.975 0 0 1-12.774-5.299l-216.94-216.93c-7.052-7.062-7.052-18.506 0-25.568 7.062-7.052 18.506-7.052 25.568 0l216.93 216.93c7.062 7.062 7.062 18.506 0 25.568a18 18 0 0 1-12.784 5.3"/><path d="M1027.628 817.338L738.385 528.095a36.195 36.195 0 0 0-18.474-9.891l-66.75-13.344-13.355-66.76a36.165 36.165 0 0 0-35.449-29.063 36.151 36.151 0 0 0-25.568 10.588l-28.672 28.672-271.16-271.17V155.95c0-9.585-3.81-18.78-10.588-25.568l-108.47-108.46c-7.063-7.062-16.31-10.588-25.568-10.588-9.248 0-18.506 3.526-25.558 10.589L36.459 94.225c-14.125 14.125-14.125 37.023 0 51.137l108.47 108.47a36.15 36.15 0 0 0 25.558 10.589h21.177l271.17 271.159-28.672 28.672a36.152 36.152 0 0 0-9.037 36.04 36.165 36.165 0 0 0 27.511 24.978l66.76 13.354 13.344 66.75a36.195 36.195 0 0 0 9.892 18.474l289.243 289.233a36.115 36.115 0 0 0 25.558 10.599c92.93 0 180.783-87.853 180.783-180.784a36.15 36.15 0 0 0-10.588-25.558zm-965.6-697.544L134.33 47.49l23.372 23.372L85.4 143.166l-23.372-23.372zm144.616 108.47h-36.157l-59.529-59.53 72.313-72.313 59.53 59.53v36.156l281.758 281.759-36.157 36.156-281.758-281.758zm650.789 759.259L568.2 698.28l-18.083-90.387-90.387-18.083 144.617-144.616 18.083 90.386 90.387 18.084 289.243 289.232c0 72.314-72.314 144.627-144.627 144.627z"/><path d="M515.195 622.493l-224.33 224.33a35.99 35.99 0 0 0-10.525 25.431c0 28.81-11.222 55.887-31.596 76.272-42.058 42.058-110.497 42.058-152.555 0-20.374-20.385-31.596-47.473-31.596-76.282 0-28.82 11.222-55.909 31.596-76.283 20.375-20.374 47.463-31.586 76.272-31.586 9.544 0 18.686-3.79 25.431-10.535l257.753-257.753-13.502-18.611-12.816-5.922-256.866 256.855c-36.81 0-73.612 14.05-101.703 42.132-28.08 28.08-42.121 64.892-42.121 101.703 0 36.811 14.04 73.622 42.121 101.703 56.172 56.172 147.245 56.172 203.407 0 28.09-28.08 42.131-64.892 42.131-101.693v-.01L544.49 644.05s-21.25-15.265-29.295-21.557M1016.237 136.336L891.615 260.958H783.747V153.09L908.37 28.468C881.29 16.233 851.342 9.255 819.703 9.255c-119.153 0-215.747 96.593-215.747 215.747 0 21.789 3.294 42.786 9.3 62.612l-127.05 127.05 3.61 5.33 24.767 17.155 113.432-113.431c20.564 39.862 53.12 72.408 92.972 92.983l-87.356 87.357 11.01 13.449 19.847 6.535 92.603-92.593c19.826 6.006 40.823 9.3 62.612 9.3 119.154 0 215.748-96.594 215.748-215.747 0-31.639-6.978-61.588-19.214-88.666zM819.703 404.793c-99.138 0-179.791-80.653-179.791-179.791 0-99.138 80.653-179.78 179.791-179.78 6.693 0 13.354.369 19.952 1.108l-81.339 81.329a36.009 36.009 0 0 0-10.525 25.43v107.869c0 19.868 16.099 35.967 35.956 35.967h107.868c9.544 0 18.686-3.79 25.432-10.536l81.328-81.34c.75 6.599 1.12 13.26 1.12 19.953 0 99.138-80.654 179.791-179.792 179.791z"/><path d="M262.362 764.375c0 4.593 1.753 9.195 5.268 12.71 7.02 7.02 18.4 7.02 25.42 0l174.524-174.523h-11.19l-24.122-16.004-28.176 28.64L267.63 751.656a17.928 17.928 0 0 0-5.268 12.72M621.628 443.906l-4.962 9.553a17.813 17.813 0 0 0 4.962-9.553M172.461 800.332c-39.65 0-71.912 32.26-71.912 71.912 0 39.65 32.261 71.912 71.912 71.912 39.662 0 71.923-32.261 71.923-71.912s-32.261-71.912-71.923-71.912zm0 107.868c-19.857 0-35.956-16.1-35.956-35.956 0-19.857 16.1-35.956 35.956-35.956 19.857 0 35.956 16.099 35.956 35.956 0 19.857-16.099 35.956-35.956 35.956z"/></svg>